<svg fill="none" xmlns="http://www.w3.org/2000/svg" viewBox="0 0 38 38"><path d="M0 19a19 19 0 1 1 38 0 19 19 0 0 1-38 0Z" fill="#FCFCFC" fill-opacity=".3"/><path fill-rule="evenodd" clip-rule="evenodd" d="M20.8 14.8a.7.7 0 1 0-1-1l-4.6 4.7c-.3.3-.3.7 0 1l4.7 4.6a.7.7 0 1 0 .9-.9L16.6 19l4.2-4.2Z" fill="#FCFCFC"/><path d="M19 36A17 17 0 0 1 2 19h-4a21 21 0 0 0 21 21v-4Zm17-17a17 17 0 0 1-17 17v4a21 21 0 0 0 21-21h-4ZM19 2a17 17 0 0 1 17 17h4A21 21 0 0 0 19-2v4Zm0-4A21 21 0 0 0-2 19h4A17 17 0 0 1 19 2v-4Z" fill="#FCFCFC"/></svg>